<svg width="98" height="250" viewBox="0 0 98 250" fill="none" xmlns="http://www.w3.org/2000/svg">
<path fill-rule="evenodd" clip-rule="evenodd" d="M31 0C29.8954 0 29 0.895432 29 2V3C29 4.10457 29.8954 5 31 5H34V61.3385C14.2753 67.6743 0 86.1701 0 108V240C0 245.523 4.47714 250 10 250H88C93.5229 250 98 245.523 98 240V108C98 86.1701 83.7247 67.6743 64 61.3385V5H67C68.1046 5 69 4.10457 69 3V2C69 0.895432 68.1046 0 67 0H31Z" fill="#4E7D0E"/>
<path fill-rule="evenodd" clip-rule="evenodd" d="M92 149V172.56H77.1229C69.6941 177.198 60.0456 180 49.5 180C38.9544 180 29.3059 177.198 21.8771 172.56H7V149V125.44H21.877C29.3059 120.802 38.9544 118 49.5 118C60.0456 118 69.6941 120.802 77.123 125.44H92V149Z" fill="#FFD7A9"/>
<path d="M23.128 158V157.424L25.168 156.944V140.768L23.128 140.3V139.724H30.304C31.408 139.724 32.324 139.804 33.052 139.964C33.788 140.116 34.4 140.356 34.888 140.684C35.456 141.076 35.9 141.576 36.22 142.184C36.54 142.792 36.7 143.448 36.7 144.152C36.7 145.176 36.356 146.04 35.668 146.744C34.988 147.448 34.008 147.928 32.728 148.184V148.268C33.688 148.372 34.528 148.648 35.248 149.096C35.968 149.536 36.524 150.104 36.916 150.8C37.316 151.496 37.516 152.28 37.516 153.152C37.516 153.88 37.372 154.56 37.084 155.192C36.796 155.824 36.4 156.344 35.896 156.752C35.344 157.2 34.668 157.52 33.868 157.712C33.068 157.904 32.012 158 30.7 158H23.128ZM29.932 157.052C31.5 157.052 32.656 156.72 33.4 156.056C34.152 155.384 34.528 154.348 34.528 152.948C34.528 151.516 34.14 150.464 33.364 149.792C32.588 149.112 31.376 148.772 29.728 148.772H27.868V155.636C27.868 156.188 28.012 156.564 28.3 156.764C28.596 156.956 29.14 157.052 29.932 157.052ZM27.868 147.788H29.188C29.62 147.788 29.98 147.784 30.268 147.776C30.564 147.76 30.836 147.74 31.084 147.716C31.964 147.62 32.64 147.264 33.112 146.648C33.584 146.024 33.82 145.18 33.82 144.116C33.82 143.548 33.748 143.072 33.604 142.688C33.46 142.296 33.232 141.948 32.92 141.644C32.576 141.292 32.16 141.048 31.672 140.912C31.192 140.768 30.532 140.696 29.692 140.696H27.868V147.788ZM45.6578 158.252C44.4978 158.252 43.4778 157.988 42.5978 157.46C41.7258 156.924 41.0458 156.18 40.5578 155.228C40.0778 154.268 39.8378 153.16 39.8378 151.904C39.8378 150.568 40.1058 149.396 40.6418 148.388C41.1858 147.38 41.9418 146.592 42.9098 146.024C43.8858 145.456 45.0138 145.172 46.2938 145.172C47.8778 145.172 49.0898 145.632 49.9298 146.552C50.7778 147.472 51.2178 148.82 51.2498 150.596L51.0818 150.74H41.7818V150.044L48.5018 149.804C48.5578 149.596 48.5858 149.28 48.5858 148.856C48.5858 146.936 47.7418 145.976 46.0538 145.976C44.8938 145.976 43.9978 146.432 43.3658 147.344C42.7418 148.248 42.4298 149.532 42.4298 151.196C42.4298 154.676 43.7818 156.416 46.4858 156.416C48.2458 156.416 49.5938 155.776 50.5298 154.496L50.9738 154.772C50.5578 155.876 49.8818 156.732 48.9458 157.34C48.0178 157.948 46.9218 158.252 45.6578 158.252ZM59.0875 158.252C57.9275 158.252 56.9075 157.988 56.0275 157.46C55.1555 156.924 54.4755 156.18 53.9875 155.228C53.5075 154.268 53.2675 153.16 53.2675 151.904C53.2675 150.568 53.5355 149.396 54.0715 148.388C54.6155 147.38 55.3715 146.592 56.3395 146.024C57.3155 145.456 58.4435 145.172 59.7235 145.172C61.3075 145.172 62.5195 145.632 63.3595 146.552C64.2075 147.472 64.6475 148.82 64.6795 150.596L64.5115 150.74H55.2115V150.044L61.9315 149.804C61.9875 149.596 62.0155 149.28 62.0155 148.856C62.0155 146.936 61.1715 145.976 59.4835 145.976C58.3235 145.976 57.4275 146.432 56.7955 147.344C56.1715 148.248 55.8595 149.532 55.8595 151.196C55.8595 154.676 57.2115 156.416 59.9155 156.416C61.6755 156.416 63.0235 155.776 63.9595 154.496L64.4035 154.772C63.9875 155.876 63.3115 156.732 62.3755 157.34C61.4475 157.948 60.3515 158.252 59.0875 158.252ZM66.3612 158V157.472L68.1612 157.1V147.32L66.4092 146.66V146.312L70.2492 145.16H70.5132V147.752L70.6092 147.872V157.1L73.0812 157.472V158H66.3612ZM70.4292 148.856L70.3812 147.872C70.9732 147 71.5612 146.328 72.1452 145.856C72.7372 145.384 73.2892 145.148 73.8012 145.148C74.2412 145.148 74.6132 145.3 74.9172 145.604C75.2212 145.9 75.3732 146.26 75.3732 146.684C75.3732 147.076 75.2412 147.408 74.9772 147.68C74.7132 147.944 74.3852 148.076 73.9932 148.076C73.5932 148.076 73.2812 147.928 73.0572 147.632C72.8972 147.448 72.7612 147.324 72.6492 147.26C72.5372 147.188 72.4092 147.152 72.2652 147.152C72.0332 147.152 71.7412 147.308 71.3892 147.62C71.0452 147.924 70.7252 148.336 70.4292 148.856Z" fill="black"/>
</svg>
