<svg width="165" height="250" viewBox="0 0 165 250" fill="none" xmlns="http://www.w3.org/2000/svg">
<path fill-rule="evenodd" clip-rule="evenodd" d="M12.218 5C12.218 2.23858 14.4566 0 17.218 0H148.195C150.957 0 153.195 2.23858 153.195 5V7.5188H154.474C159.997 7.5188 164.474 11.9959 164.474 17.5188V232.481C164.474 238.004 159.997 242.481 154.474 242.481H153.195C153.195 246.634 149.829 250 145.677 250H19.7368C15.5843 250 12.218 246.634 12.218 242.481H10C4.47715 242.481 0 238.004 0 232.481V17.5188C0 11.9959 4.47715 7.5188 10 7.5188H12.218V5Z" fill="#CBD5E1"/>
<rect y="23" width="164" height="203" fill="#60A5FA"/>
<path fill-rule="evenodd" clip-rule="evenodd" d="M3.75928 198.169V115.816L160.714 51.6918V134.044L3.75928 198.169Z" fill="white"/>
<path d="M41.9471 129.432C44.8722 128.215 47.2088 127.646 48.9571 127.725C50.6961 127.781 51.8744 128.552 52.4919 130.036C53.1002 131.499 53.1114 132.807 52.5254 133.961C51.9524 135.083 51.0898 135.883 49.9374 136.363C48.7851 136.842 47.6238 136.987 46.4535 136.798C45.2961 136.577 44.3373 136.053 43.5772 135.226C42.7573 135.567 42.0859 136.171 41.5629 137.038C41.0528 137.874 40.8778 138.766 41.0378 139.713C45.8678 138.952 49.5306 138.884 52.0262 139.51C54.5218 140.135 56.2305 141.556 57.1521 143.772C58.0738 145.988 57.8029 148.18 56.3393 150.348C54.8979 152.508 52.471 154.297 49.0584 155.716C45.6679 157.126 43.07 157.661 41.2647 157.32C39.4594 156.979 38.2388 156.044 37.6028 154.515C36.9669 152.986 36.858 151.381 37.2763 149.699C38.1564 150.503 39.4161 151.032 41.0553 151.286C42.7167 151.531 44.19 151.386 45.4753 150.851C47.8464 149.865 49.0399 148.485 49.0558 146.711C45.1745 147.753 41.9473 147.9 39.3743 147.15C36.792 146.379 35.04 144.885 34.1184 142.669C33.5008 141.184 33.3513 139.7 33.6698 138.216C33.9791 136.71 34.6251 135.388 35.608 134.252C37.5295 131.997 39.6425 130.39 41.9471 129.432ZM57.6942 139.219C55.9431 135.008 55.7166 131.152 57.0148 127.648C58.3038 124.123 60.987 121.513 65.0644 119.817C66.3719 119.273 67.4132 119.152 68.1884 119.453C68.9765 119.723 69.5964 120.401 70.048 121.487C70.1125 121.642 70.2148 121.95 70.3548 122.412C70.8982 121.406 71.6685 120.696 72.6657 120.281C74.0174 119.719 75.4232 119.849 76.883 120.672C78.3557 121.463 79.5667 122.999 80.516 125.282C81.4654 127.564 81.9707 129.81 82.0321 132.02C82.0934 134.23 81.7682 136.198 81.0563 137.924C80.3666 139.64 79.3844 141.153 78.1097 142.463C76.8572 143.764 75.411 144.756 73.7712 145.438C70.2257 146.912 67.0031 147.07 64.1035 145.911C61.1947 144.729 59.0583 142.498 57.6942 139.219ZM74.9306 133.882C72.7934 132.744 71.3101 131.177 70.4806 129.183C69.6511 127.189 69.4261 125.398 69.8056 123.81C69.3791 123.91 68.9664 124.042 68.5675 124.208C66.9941 124.863 65.8295 125.906 65.0735 127.338C63.6392 130.014 63.5764 132.925 64.8852 136.072C65.6317 137.867 66.6527 139.197 67.9482 140.062C69.2436 140.926 70.6004 141.064 72.0187 140.474C73.1045 140.022 73.9155 139.191 74.4516 137.98C75.0007 136.738 75.1604 135.372 74.9306 133.882ZM86.5758 132.782C86.0504 131.519 85.4233 129.167 84.6944 125.727C83.9655 122.288 83.4925 120.119 83.2752 119.222L80.0342 116.398C82.1849 113.632 84.2463 111.839 86.2186 111.018C87.1936 110.613 88.0631 110.641 88.8271 111.103C90.3991 109.695 91.9607 108.669 93.5119 108.024C96.3926 106.826 99.0225 106.837 101.401 108.057C103.771 109.254 105.537 111.249 106.698 114.041C108.228 117.72 108.282 121.662 106.859 125.866C106.169 127.895 104.939 129.81 103.167 131.613C101.418 133.406 99.324 134.81 96.8865 135.823C94.4489 136.837 92.333 137.094 90.5389 136.592C88.7355 136.068 87.4145 134.798 86.5758 132.782ZM94.1479 131.114C94.6502 131.009 95.1893 130.837 95.7655 130.597C98.1809 129.593 99.705 127.945 100.338 125.654C100.961 123.341 100.743 120.911 99.6834 118.362C98.8263 116.302 97.6789 114.855 96.2413 114.024C94.8036 113.192 93.2095 113.14 91.4589 113.868C91.193 113.979 90.7682 114.208 90.1846 114.554C90.4996 115.749 91.1403 118.446 92.1069 122.644C93.0864 126.812 93.7667 129.635 94.1479 131.114ZM125.757 100.305L128.782 108.326C129.915 111.052 131.091 113.253 132.308 114.93C133.548 116.598 134.936 117.529 136.471 117.722C135.339 119.311 133.986 120.432 132.412 121.087C129.642 122.239 127.005 120.71 124.501 116.501L117.72 119.322C117.898 120.937 118.148 122.133 118.471 122.908C118.784 123.662 119.126 124.234 119.497 124.626C118.291 126.349 117.045 127.478 115.759 128.013C113.787 128.833 112.303 128.047 111.308 125.653C110.81 124.457 110.549 122.798 110.525 120.677C110.522 118.546 110.642 116.053 110.884 113.197C111.148 110.332 111.289 108.454 111.308 107.562C110.567 106.467 109.801 105.408 109.012 104.384C109.832 103.107 110.692 102.048 111.589 101.207C112.5 100.334 113.576 99.6398 114.817 99.1237C116.08 98.5983 117.07 98.5112 117.788 98.8625C118.821 97.7831 119.747 97.0729 120.567 96.7319C121.387 96.3909 122.052 96.2704 122.561 96.3704C123.071 96.4704 123.52 96.7384 123.909 97.1744C124.588 97.9317 125.204 98.9752 125.757 100.305ZM119.394 103.848L118.33 104.291C117.94 108.976 117.718 112.629 117.664 115.251L122.817 113.108C121.812 110.692 120.671 107.606 119.394 103.848Z" fill="#0F172A"/>
</svg>
