<svg width="250" height="250" viewBox="0 0 250 250" fill="none" xmlns="http://www.w3.org/2000/svg">
<circle cx="125" cy="125" r="125" fill="#FDBA74"/>
<circle cx="124.5" cy="125.5" r="114.5" fill="#DC2626"/>
<circle cx="124.5" cy="125.5" r="109.5" fill="#FEE68B"/>
<circle cx="34.0012" cy="137.385" r="12.5" transform="rotate(-72.8712 34.0012 137.385)" fill="#B81D1C"/>
<circle cx="86.9469" cy="114.985" r="12.5" transform="rotate(-72.8712 86.9469 114.985)" fill="#EA580E"/>
<circle cx="201.906" cy="176.575" r="12.5" transform="rotate(-72.8712 201.906 176.575)" fill="#EA580E"/>
<circle cx="160.657" cy="184.79" r="12.5" transform="rotate(-72.8712 160.657 184.79)" fill="#B81D1C"/>
<circle cx="187.838" cy="72.8296" r="12.5" transform="rotate(-72.8712 187.838 72.8296)" fill="#B81D1C"/>
<circle cx="147.635" cy="43.6968" r="12.5" transform="rotate(-72.8712 147.635 43.6968)" fill="#EA580E"/>
<circle cx="146.864" cy="120.894" r="12.5" transform="rotate(-72.8712 146.864 120.894)" fill="#EA580E"/>
<circle cx="76.0148" cy="65.5736" r="12.5" transform="rotate(-72.8712 76.0148 65.5736)" fill="#B81D1C"/>
<circle cx="81.3983" cy="190.71" r="12.5" transform="rotate(-72.8712 81.3983 190.71)" fill="#B81D1C"/>
<rect x="101.832" y="90.7962" width="13.973" height="27.9459" rx="6.98648" transform="rotate(-101.063 101.832 90.7962)" fill="#F97171"/>
<rect x="194.031" y="133.542" width="13.973" height="27.9459" rx="6.98648" transform="rotate(-120.634 194.031 133.542)" fill="#F97171"/>
<rect x="88.3806" y="156.444" width="13.973" height="27.9459" rx="6.98648" transform="rotate(-40.3681 88.3806 156.444)" fill="#F97171"/>
<rect x="43.9929" y="108.549" width="13.973" height="27.9459" rx="6.98648" transform="rotate(-148.833 43.9929 108.549)" fill="#F97171"/>
<rect x="44.1956" y="181.403" width="13.973" height="27.9459" rx="6.98648" transform="rotate(-117.792 44.1956 181.403)" fill="#F97171"/>
<rect x="97.5835" y="38.4547" width="13.973" height="20" rx="5" transform="rotate(-31.1741 97.5835 38.4547)" fill="#F97171"/>
<rect x="121.548" y="155.471" width="13.973" height="20" rx="5" transform="rotate(-74.883 121.548 155.471)" fill="#F97171"/>
<rect x="152.546" y="87.1788" width="13.973" height="20" rx="5" transform="rotate(-38.1447 152.546 87.1788)" fill="#F97171"/>
<rect x="125.86" y="219.417" width="13.973" height="20" rx="5" transform="rotate(-124.196 125.86 219.417)" fill="#F97171"/>
</svg>
