<svg width="250" height="250" viewBox="0 0 250 250" fill="none" xmlns="http://www.w3.org/2000/svg">
<circle cx="125" cy="125" r="125" fill="#FDBA74"/>
<circle cx="124.5" cy="125.5" r="114.5" fill="#DC2626"/>
<circle cx="124.5" cy="125.5" r="109.5" fill="#FEE68B"/>
<circle cx="178.427" cy="81.427" r="27" transform="rotate(91.8953 178.427 81.427)" stroke="#9E174D" stroke-width="3"/>
<circle cx="91.5" cy="48.5" r="12.5" fill="#B81D1C"/>
<circle cx="104.5" cy="104.5" r="12.5" fill="#B81D1C"/>
<circle cx="78.5" cy="184.5" r="12.5" fill="#B81D1C"/>
<circle cx="187.5" cy="182.5" r="12.5" fill="#B81D1C"/>
<circle cx="207.5" cy="144.5" r="12.5" fill="#B81D1C"/>
<circle cx="147.5" cy="169.5" r="12.5" fill="#B81D1C"/>
<circle cx="151.5" cy="72.5" r="12.5" fill="#B81D1C"/>
<circle cx="43.5" cy="115.5" r="12.5" fill="#B81D1C"/>
<circle cx="92.427" cy="79.427" r="27" transform="rotate(91.8953 92.427 79.427)" stroke="#9E174D" stroke-width="3"/>
<rect x="122" y="45.1941" width="26" height="7" rx="2.5" transform="rotate(-20.7088 122 45.1941)" fill="#66A307"/>
<rect x="36.1346" y="76" width="26" height="7" rx="2.5" transform="rotate(26.6025 36.1346 76)" fill="#66A307"/>
<rect x="191.465" y="114.622" width="26" height="7" rx="2.5" transform="rotate(107.636 191.465 114.622)" fill="#66A307"/>
<rect x="135" y="221.194" width="26" height="7" rx="2.5" transform="rotate(-20.7088 135 221.194)" fill="#66A307"/>
<rect x="50.9979" y="143" width="26" height="7" rx="2.5" transform="rotate(88.6189 50.9979 143)" fill="#66A307"/>
<rect x="187" y="75.1941" width="26" height="7" rx="2.5" transform="rotate(-20.7088 187 75.1941)" fill="#66A307"/>
<rect x="143.535" y="139.857" width="26" height="7" rx="2.5" transform="rotate(-109.163 143.535 139.857)" fill="#66A307"/>
<circle cx="98.5045" cy="172.106" r="27" transform="rotate(91.8953 98.5045 172.106)" stroke="#9E174D" stroke-width="3"/>
</svg>
