<svg width="250" height="250" viewBox="0 0 250 250" fill="none" xmlns="http://www.w3.org/2000/svg">
<circle cx="125" cy="125" r="125" fill="#FDBA74"/>
<circle cx="124.5" cy="125.5" r="114.5" fill="#DC2626"/>
<circle cx="124.5" cy="125.5" r="109.5" fill="#FEE68B"/>
<rect x="197.799" y="107.452" width="26" height="7" rx="2.5" transform="rotate(62.9959 197.799 107.452)" fill="#B81D1C"/>
<rect x="159.977" y="36.4294" width="26" height="7" rx="2.5" transform="rotate(110.307 159.977 36.4294)" fill="#B81D1C"/>
<rect x="143.809" y="196.498" width="26" height="7" rx="2.5" transform="rotate(-168.659 143.809 196.498)" fill="#B81D1C"/>
<rect x="30.2368" y="125.937" width="26" height="7" rx="2.5" transform="rotate(62.9959 30.2368 125.937)" fill="#B81D1C"/>
<rect x="102.174" y="77.8809" width="26" height="7" rx="2.5" transform="rotate(172.324 102.174 77.8809)" fill="#B81D1C"/>
<rect x="170.589" y="179.997" width="26" height="7" rx="2.5" transform="rotate(62.9959 170.589 179.997)" fill="#B81D1C"/>
<rect x="109.188" y="129.625" width="26" height="7" rx="2.5" transform="rotate(21.7345 109.188 129.625)" fill="#B81D1C"/>
<rect x="150.822" y="99.8398" width="15" height="15" rx="5" transform="rotate(23.5239 150.822 99.8398)" fill="#FEFDE9"/>
<rect x="100.022" y="54.482" width="15" height="15" rx="5" transform="rotate(-46.3035 100.022 54.482)" fill="#FEFDE9"/>
<rect x="35" y="77.1688" width="15" height="15" rx="5" transform="rotate(-9.11633 35 77.1688)" fill="#FEFDE9"/>
<rect x="72.5553" y="126" width="15" height="15" rx="5" transform="rotate(39.5701 72.5553 126)" fill="#FEFDE9"/>
<rect x="76" y="180.169" width="15" height="15" rx="5" transform="rotate(-9.11633 76 180.169)" fill="#FEFDE9"/>
<rect x="183" y="171.471" width="15" height="15" rx="5" transform="rotate(-76.7943 183 171.471)" fill="#FEFDE9"/>
<rect x="199" y="90.1688" width="15" height="15" rx="5" transform="rotate(-9.11633 199 90.1688)" fill="#FEFDE9"/>
<circle cx="61" cy="94" r="3" fill="#66A307"/>
<circle cx="132" cy="78" r="3" fill="#66A307"/>
<circle cx="78" cy="50" r="3" fill="#66A307"/>
<circle cx="130" cy="25" r="3" fill="#66A307"/>
<circle cx="168" cy="91" r="3" fill="#66A307"/>
<circle cx="202" cy="75" r="3" fill="#66A307"/>
<circle cx="168" cy="135" r="3" fill="#66A307"/>
<circle cx="213" cy="151" r="3" fill="#66A307"/>
<circle cx="139" cy="159" r="3" fill="#66A307"/>
<circle cx="148" cy="220" r="3" fill="#66A307"/>
<circle cx="46" cy="129" r="3" fill="#66A307"/>
<circle cx="99" cy="212" r="3" fill="#66A307"/>
<circle cx="49" cy="178" r="3" fill="#66A307"/>
<circle cx="84" cy="157" r="3" fill="#66A307"/>
<circle cx="97" cy="113" r="3" fill="#66A307"/>
</svg>
