<svg width="250" height="250" viewBox="0 0 250 250" fill="none" xmlns="http://www.w3.org/2000/svg">
<path d="M250 125C250 194.036 194.036 250 125 250C55.9644 250 0 194.036 0 125C0 55.9644 55.9644 0 125 0C194.036 0 250 55.9644 250 125Z" fill="#FDBA74"/>
<path d="M239 125.5C239 188.737 187.737 240 124.5 240C61.2634 240 10 188.737 10 125.5C10 62.2634 61.2634 11 124.5 11C187.737 11 239 62.2634 239 125.5Z" fill="#DC2626"/>
<path d="M234 125.5C234 185.975 184.975 235 124.5 235C64.0248 235 15 185.975 15 125.5C15 65.0248 64.0248 16 124.5 16C184.975 16 234 65.0248 234 125.5Z" fill="#FEE68B"/>
<path d="M100 40.5C100 47.4036 94.4036 53 87.5 53C80.5964 53 75 47.4036 75 40.5C75 33.5964 80.5964 28 87.5 28C94.4036 28 100 33.5964 100 40.5Z" fill="#B81D1C"/>
<path d="M137 84.5C137 91.4036 131.404 97 124.5 97C117.596 97 112 91.4036 112 84.5C112 77.5964 117.596 72 124.5 72C131.404 72 137 77.5964 137 84.5Z" fill="#EA580E"/>
<path d="M112 212.5C112 219.404 106.404 225 99.5 225C92.5964 225 87 219.404 87 212.5C87 205.596 92.5964 200 99.5 200C106.404 200 112 205.596 112 212.5Z" fill="#EA580E"/>
<path d="M103 169.5C103 176.404 97.4036 182 90.5 182C83.5964 182 78 176.404 78 169.5C78 162.596 83.5964 157 90.5 157C97.4036 157 103 162.596 103 169.5Z" fill="#B81D1C"/>
<path d="M207 168.5C207 175.404 201.404 181 194.5 181C187.596 181 182 175.404 182 168.5C182 161.596 187.596 156 194.5 156C201.404 156 207 161.596 207 168.5Z" fill="#B81D1C"/>
<path d="M223 121.5C223 128.404 217.404 134 210.5 134C203.596 134 198 128.404 198 121.5C198 114.596 203.596 109 210.5 109C217.404 109 223 114.596 223 121.5Z" fill="#EA580E"/>
<path d="M149 143.5C149 150.404 143.404 156 136.5 156C129.596 156 124 150.404 124 143.5C124 136.596 129.596 131 136.5 131C143.404 131 149 136.596 149 143.5Z" fill="#EA580E"/>
<path d="M181 59.5C181 66.4036 175.404 72 168.5 72C161.596 72 156 66.4036 156 59.5C156 52.5964 161.596 47 168.5 47C175.404 47 181 52.5964 181 59.5Z" fill="#B81D1C"/>
<path d="M63 101.5C63 108.404 57.4036 114 50.5 114C43.5964 114 38 108.404 38 101.5C38 94.5964 43.5964 89 50.5 89C57.4036 89 63 94.5964 63 101.5Z" fill="#B81D1C"/>
<path d="M155.301 97.7588C153.478 94.358 154.757 90.1234 158.158 88.3006C161.558 86.4777 165.793 87.7569 167.616 91.1577L174.217 103.473C176.04 106.874 174.761 111.108 171.36 112.931C167.959 114.754 163.725 113.475 161.902 110.074L155.301 97.7588Z" fill="#F97171"/>
<path d="M90.173 115.565C91.4935 111.939 95.503 110.07 99.1286 111.391C102.754 112.712 104.623 116.721 103.302 120.347L98.5202 133.476C97.1997 137.101 93.1901 138.97 89.5646 137.649C85.939 136.329 84.0704 132.319 85.391 128.694L90.173 115.565Z" fill="#F97171"/>
<path d="M143.478 196.996C140.621 194.403 140.408 189.984 143.002 187.128C145.595 184.271 150.014 184.058 152.87 186.651L163.216 196.044C166.072 198.638 166.285 203.056 163.692 205.913C161.098 208.77 156.68 208.983 153.823 206.389L143.478 196.996Z" fill="#F97171"/>
<path d="M34.6065 151.632C32.811 148.217 34.1241 143.993 37.5395 142.197C40.9548 140.402 45.179 141.715 46.9745 145.13L53.4765 157.498C55.272 160.914 53.9589 165.138 50.5435 166.933C47.1282 168.729 42.904 167.416 41.1085 164L34.6065 151.632Z" fill="#F97171"/>
<path d="M124.778 43.2503C121.035 42.3144 118.759 38.5211 119.695 34.7778C120.631 31.0345 124.424 28.7587 128.167 29.6946L141.723 33.0839C145.466 34.0199 147.742 37.8131 146.806 41.5564C145.87 45.2997 142.077 47.5755 138.334 46.6396L124.778 43.2503Z" fill="#F97171"/>
<path d="M53.3699 68.1535C50.6453 65.4214 50.6514 60.9978 53.3835 58.2731C56.1157 55.5485 60.5392 55.5546 63.2639 58.2867L73.1306 68.1807C75.8553 70.9129 75.8492 75.3365 73.117 78.0611C70.3849 80.7857 65.9613 80.7796 63.2367 78.0475L53.3699 68.1535Z" fill="#F97171"/>
</svg>
