<svg width="250" height="250" viewBox="0 0 250 250" fill="none" xmlns="http://www.w3.org/2000/svg">
<circle cx="125" cy="125" r="125" fill="#FDBA74"/>
<circle cx="124.5" cy="125.5" r="114.5" fill="#DC2626"/>
<circle cx="124.5" cy="125.5" r="109.5" fill="#FEE68B"/>
<rect x="108.876" y="48.1941" width="26" height="7" rx="2.5" transform="rotate(-20.7088 108.876 48.1941)" fill="#66A307"/>
<path d="M87.7067 195.036C84.4052 194.216 81.2482 194.894 79.5056 197.122C76.826 200.547 78.5051 206.336 83.256 210.054C88.007 213.771 94.0307 214.008 96.7103 210.583C98.343 208.496 98.3575 205.531 97.0448 202.692L100.713 198.004C101.67 196.781 101.432 194.997 100.182 194.018L95.2013 190.122C93.9511 189.144 92.1618 189.342 91.2048 190.565L87.7067 195.036Z" fill="#D99A59"/>
<path d="M101.745 68.2129C98.7532 69.8317 96.878 72.4606 97.0915 75.2805C97.4197 79.6166 102.562 82.7626 108.577 82.3073C114.592 81.852 119.202 77.9678 118.874 73.6316C118.674 70.9895 116.687 68.7893 113.804 67.5764L113.354 61.6411C113.237 60.0925 111.859 58.9342 110.276 59.0541L103.971 59.5314C102.388 59.6512 101.199 61.0037 101.317 62.5523L101.745 68.2129Z" fill="#D99A59"/>
<circle cx="101.5" cy="69.5" r="27" stroke="#9E174D" stroke-width="3"/>
<circle cx="101.5" cy="168.5" r="27" stroke="#9E174D" stroke-width="3"/>
<circle cx="189.5" cy="146.5" r="27" stroke="#9E174D" stroke-width="3"/>
<path d="M174.492 63.8747C177.885 63.624 180.673 61.9945 181.634 59.3347C183.111 55.2449 179.709 50.2679 174.036 48.2183C168.362 46.1688 162.565 47.8228 161.088 51.9126C160.188 54.4046 161.099 57.2261 163.232 59.5139L161.21 65.112C160.682 66.5727 161.464 68.194 162.957 68.7334L168.905 70.8819C170.398 71.4212 172.036 70.6744 172.564 69.2137L174.492 63.8747Z" fill="#D99A59"/>
<path d="M56.6606 120.206C59.0145 117.75 59.9964 114.674 58.9311 112.054C57.2932 108.026 51.4354 106.602 45.8473 108.874C40.2593 111.147 37.0571 116.254 38.695 120.282C39.6931 122.737 42.2579 124.224 45.3737 124.498L47.6158 130.012C48.2008 131.45 49.8671 132.132 51.3376 131.534L57.1955 129.152C58.666 128.554 59.3839 126.903 58.7989 125.464L56.6606 120.206Z" fill="#D99A59"/>
<path d="M149.779 114.308C150.13 117.692 151.841 120.43 154.528 121.312C158.66 122.668 163.534 119.121 165.415 113.39C167.296 107.658 165.472 101.913 161.34 100.557C158.823 99.7302 156.03 100.724 153.806 102.924L148.15 101.068C146.675 100.583 145.077 101.413 144.582 102.922L142.61 108.93C142.115 110.438 142.91 112.054 144.385 112.538L149.779 114.308Z" fill="#D99A59"/>
<path d="M149.779 205.487C150.13 208.871 151.841 211.609 154.528 212.491C158.66 213.847 163.534 210.3 165.415 204.569C167.296 198.837 165.472 193.092 161.34 191.735C158.823 190.909 156.03 191.903 153.806 194.103L148.15 192.247C146.675 191.762 145.077 192.592 144.582 194.101L142.61 200.109C142.115 201.617 142.91 203.232 144.385 203.717L149.779 205.487Z" fill="#D99A59"/>
<rect x="34.1346" y="78" width="26" height="7" rx="2.5" transform="rotate(26.6025 34.1346 78)" fill="#66A307"/>
<rect x="191.465" y="111.622" width="26" height="7" rx="2.5" transform="rotate(107.636 191.465 111.622)" fill="#66A307"/>
<rect x="108.876" y="216.773" width="26" height="7" rx="2.5" transform="rotate(-20.7088 108.876 216.773)" fill="#66A307"/>
<rect x="68.9979" y="140" width="26" height="7" rx="2.5" transform="rotate(88.6189 68.9979 140)" fill="#66A307"/>
<rect x="178" y="83.1941" width="26" height="7" rx="2.5" transform="rotate(-20.7088 178 83.1941)" fill="#66A307"/>
<rect x="121.199" y="138.701" width="26" height="7" rx="2.5" transform="rotate(-61.9702 121.199 138.701)" fill="#66A307"/>
<circle cx="88" cy="109" r="5" stroke="black" stroke-width="4"/>
<circle cx="147" cy="76" r="5" stroke="black" stroke-width="4"/>
<circle cx="154" cy="189" r="5" stroke="black" stroke-width="4"/>
<circle cx="218" cy="110" r="5" stroke="black" stroke-width="4"/>
<circle cx="69" cy="47" r="5" stroke="black" stroke-width="4"/>
<circle cx="102" cy="182" r="5" stroke="black" stroke-width="4"/>
<circle cx="44" cy="159" r="5" stroke="black" stroke-width="4"/>
</svg>
