<svg width="250" height="250" viewBox="0 0 250 250" fill="none" xmlns="http://www.w3.org/2000/svg">
<circle cx="125" cy="125" r="125" fill="#FDBA74"/>
<circle cx="124.5" cy="125.5" r="114.5" fill="#DC2626"/>
<circle cx="124.5" cy="125.5" r="109.5" fill="#FEE68B"/>
<circle cx="51.0753" cy="97.0753" r="12.5" transform="rotate(-60 51.0753 97.0753)" fill="#EA580E"/>
<circle cx="188.478" cy="186.347" r="12.5" transform="rotate(-60 188.478 186.347)" fill="#EA580E"/>
<circle cx="163.075" cy="49.0753" r="12.5" transform="rotate(-60 163.075 49.0753)" fill="#EA580E"/>
<circle cx="147.222" cy="119.804" r="12.5" transform="rotate(-60 147.222 119.804)" fill="#EA580E"/>
<circle cx="67.8492" cy="173.282" r="12.5" transform="rotate(-60 67.8492 173.282)" fill="#EA580E"/>
<ellipse cx="128.406" cy="192.632" rx="14" ry="21" transform="rotate(13.1349 128.406 192.632)" fill="#FEFDE9"/>
<ellipse cx="198.406" cy="117.632" rx="14" ry="21" transform="rotate(-29.8289 198.406 117.632)" fill="#FEFDE9"/>
<ellipse cx="90.783" cy="122.303" rx="14" ry="21" transform="rotate(-11.1062 90.783 122.303)" fill="#FEFDE9"/>
<ellipse cx="105.366" cy="49.0224" rx="14" ry="21" transform="rotate(41.2001 105.366 49.0224)" fill="#FEFDE9"/>
<path d="M133.205 65.4966C134.614 63.7967 137.375 64.626 137.614 66.8215L140.539 93.6348C140.733 95.4143 139.048 96.8152 137.334 96.3001L117.191 90.2483C115.477 89.7332 114.844 87.6359 115.986 86.2581L133.205 65.4966Z" fill="#66A307"/>
<path d="M149.485 152.49C147.881 150.972 148.888 148.272 151.095 148.176L178.042 147.004C179.83 146.926 181.118 148.698 180.492 150.375L173.142 170.081C172.516 171.758 170.382 172.254 169.081 171.024L149.485 152.49Z" fill="#66A307"/>
<path d="M60.0368 127.571C62.2402 127.422 63.5405 129.994 62.1139 131.68L44.6913 152.271C43.535 153.637 41.3592 153.381 40.5517 151.784L31.0634 133.013C30.2559 131.416 31.3399 129.512 33.1259 129.391L60.0368 127.571Z" fill="#66A307"/>
</svg>
