<svg width="250" height="250" viewBox="0 0 250 250" fill="none" xmlns="http://www.w3.org/2000/svg">
<circle cx="125" cy="125" r="125" fill="#FDBA74"/>
<circle cx="124.5" cy="125.5" r="114.5" fill="#DC2626"/>
<circle cx="124.5" cy="125.5" r="109.5" fill="#FEE68B"/>
<path d="M81.918 182.425C82.8913 179.166 82.3608 175.981 80.2172 174.136C76.9211 171.299 71.0594 172.707 67.1246 177.279C63.1898 181.851 62.672 187.857 65.9681 190.694C67.9765 192.422 70.9374 192.575 73.8346 191.396L78.3463 195.279C79.5235 196.292 81.3172 196.137 82.3526 194.934L86.4774 190.141C87.5128 188.938 87.398 187.141 86.2208 186.128L81.918 182.425Z" fill="#D99A59"/>
<path d="M190.385 103.033C188.908 99.9685 186.369 97.9728 183.542 98.0544C179.195 98.18 175.813 103.17 175.987 109.2C176.161 115.23 179.826 120.016 184.173 119.89C186.822 119.814 189.112 117.931 190.458 115.108L196.408 114.936C197.96 114.891 199.182 113.568 199.136 111.982L198.953 105.661C198.907 104.074 197.612 102.824 196.059 102.869L190.385 103.033Z" fill="#D99A59"/>
<circle cx="189.111" cy="102.728" r="27" transform="rotate(92.6737 189.111 102.728)" stroke="#9E174D" stroke-width="3"/>
<circle cx="90.2187" cy="98.1097" r="27" transform="rotate(92.6737 90.2187 98.1097)" stroke="#9E174D" stroke-width="3"/>
<circle cx="108.09" cy="187.04" r="27" transform="rotate(92.6737 108.09 187.04)" stroke="#9E174D" stroke-width="3"/>
<path d="M191.325 175.903C191.417 179.304 192.915 182.164 195.527 183.248C199.543 184.915 204.674 181.749 206.986 176.178C209.298 170.606 207.916 164.738 203.899 163.071C201.452 162.056 198.591 162.834 196.206 164.858L190.709 162.577C189.274 161.982 187.618 162.688 187.01 164.154L184.586 169.995C183.978 171.461 184.647 173.132 186.082 173.727L191.325 175.903Z" fill="#D99A59"/>
<path d="M114.556 50.5719C116.9 53.0378 119.927 54.1621 122.593 53.2202C126.694 51.772 128.389 45.9869 126.38 40.299C124.371 34.611 119.418 31.174 115.318 32.6223C112.82 33.5048 111.214 35.9974 110.796 39.0971L105.183 41.0795C103.719 41.5967 102.96 43.2295 103.489 44.7263L105.595 50.6888C106.124 52.1857 107.739 52.9798 109.204 52.4626L114.556 50.5719Z" fill="#D99A59"/>
<path d="M141.02 152.774C137.623 152.967 134.808 154.548 133.802 157.191C132.254 161.255 135.57 166.29 141.208 168.436C146.845 170.583 152.67 169.028 154.217 164.964C155.16 162.488 154.297 159.651 152.204 157.327L154.322 151.765C154.874 150.313 154.12 148.679 152.636 148.114L146.727 145.864C145.243 145.299 143.592 146.018 143.04 147.469L141.02 152.774Z" fill="#D99A59"/>
<path d="M41.0197 78.7742C37.6233 78.9667 34.8081 80.5482 33.8017 83.1911C32.2544 87.255 35.5701 92.2896 41.2076 94.4361C46.8452 96.5826 52.6697 95.0282 54.217 90.9643C55.1599 88.4881 54.2971 85.6515 52.2038 83.3274L54.3218 77.7648C54.8744 76.3134 54.1197 74.6788 52.6362 74.114L46.7265 71.8638C45.243 71.299 43.5923 72.0176 43.0397 73.469L41.0197 78.7742Z" fill="#D99A59"/>
<ellipse cx="44.4058" cy="145.632" rx="14" ry="21" transform="rotate(13.1349 44.4058 145.632)" fill="#FEFDE9"/>
<ellipse cx="84.9869" cy="64.6967" rx="14" ry="21" transform="rotate(-64.4121 84.9869 64.6967)" fill="#FEFDE9"/>
<ellipse cx="162.591" cy="189.182" rx="14" ry="21" transform="rotate(21.4118 162.591 189.182)" fill="#FEFDE9"/>
<ellipse cx="142.088" cy="122.1" rx="14" ry="21" transform="rotate(-62.5711 142.088 122.1)" fill="#FEFDE9"/>
<ellipse cx="154.366" cy="58.0224" rx="14" ry="21" transform="rotate(41.2001 154.366 58.0224)" fill="#FEFDE9"/>
</svg>
