<svg width="250" height="250" viewBox="0 0 250 250" fill="none" xmlns="http://www.w3.org/2000/svg">
<circle cx="125" cy="125" r="125" fill="#FDBA74"/>
<circle cx="124.5" cy="125.5" r="114.5" fill="#DC2626"/>
<circle cx="124.5" cy="125.5" r="109.5" fill="#FEE68B"/>
<circle cx="163.907" cy="42.9751" r="12.5" transform="rotate(46.2622 163.907 42.9751)" fill="#EA580E"/>
<circle cx="157.697" cy="100.128" r="12.5" transform="rotate(46.2622 157.697 100.128)" fill="#EA580E"/>
<circle cx="47.9319" cy="170.559" r="12.5" transform="rotate(46.2622 47.9319 170.559)" fill="#EA580E"/>
<circle cx="72.7776" cy="134.328" r="12.5" transform="rotate(46.2622 72.7776 134.328)" fill="#EA580E"/>
<circle cx="145.401" cy="208.778" r="12.5" transform="rotate(46.2622 145.401 208.778)" fill="#EA580E"/>
<circle cx="190.421" cy="187.844" r="12.5" transform="rotate(46.2622 190.421 187.844)" fill="#EA580E"/>
<circle cx="123.365" cy="149.588" r="12.5" transform="rotate(46.2622 123.365 149.588)" fill="#EA580E"/>
<circle cx="206.18" cy="114.634" r="12.5" transform="rotate(46.2622 206.18 114.634)" fill="#EA580E"/>
<circle cx="94.254" cy="58.4151" r="12.5" transform="rotate(46.2622 94.254 58.4151)" fill="#EA580E"/>
<ellipse cx="96.4059" cy="193.632" rx="14" ry="21" transform="rotate(13.1349 96.4059 193.632)" fill="#FEFDE9"/>
<ellipse cx="180.591" cy="142.182" rx="14" ry="21" transform="rotate(-29.8289 180.591 142.182)" fill="#FEFDE9"/>
<ellipse cx="56.9071" cy="97.4227" rx="14" ry="21" transform="rotate(-114.391 56.9071 97.4227)" fill="#FEFDE9"/>
<ellipse cx="128.366" cy="76.0224" rx="14" ry="21" transform="rotate(41.2001 128.366 76.0224)" fill="#FEFDE9"/>
<circle cx="53" cy="76" r="3" fill="#713F0F"/>
<circle cx="125" cy="48" r="3" fill="#713F0F"/>
<circle cx="73" cy="41" r="3" fill="#713F0F"/>
<circle cx="163" cy="82" r="3" fill="#713F0F"/>
<circle cx="197" cy="66" r="3" fill="#713F0F"/>
<circle cx="163" cy="126" r="3" fill="#713F0F"/>
<circle cx="208" cy="142" r="3" fill="#713F0F"/>
<circle cx="126" cy="121" r="3" fill="#713F0F"/>
<circle cx="166" cy="191" r="3" fill="#713F0F"/>
<circle cx="41" cy="120" r="3" fill="#713F0F"/>
<circle cx="119" cy="188" r="3" fill="#713F0F"/>
<circle cx="52" cy="188" r="3" fill="#713F0F"/>
<circle cx="87" cy="156" r="3" fill="#713F0F"/>
<circle cx="92" cy="104" r="3" fill="#713F0F"/>
</svg>
