<svg width="250" height="250" viewBox="0 0 250 250" fill="none" xmlns="http://www.w3.org/2000/svg">
<circle cx="125" cy="125" r="125" fill="#FDBA74"/>
<circle cx="124.5" cy="125.5" r="114.5" fill="#DC2626"/>
<circle cx="124.5" cy="125.5" r="109.5" fill="#FEE68B"/>
<rect x="173" y="82.6011" width="13.973" height="20" rx="5" transform="rotate(-28.1917 173 82.6011)" fill="#F97171"/>
<rect x="146.114" y="80.8872" width="13.973" height="20" rx="5" transform="rotate(73.1907 146.114 80.8872)" fill="#F97171"/>
<rect x="101.845" y="119" width="13.973" height="20" rx="5" transform="rotate(20.013 101.845 119)" fill="#F97171"/>
<rect x="182.99" y="149.649" width="13.973" height="20" rx="5" transform="rotate(-52.844 182.99 149.649)" fill="#F97171"/>
<rect x="138.305" y="192.3" width="13.973" height="20" rx="5" transform="rotate(-47.7627 138.305 192.3)" fill="#F97171"/>
<rect x="92" y="194.491" width="13.973" height="20" rx="5" transform="rotate(-2.01178 92 194.491)" fill="#F97171"/>
<rect x="31.3555" y="145.448" width="13.973" height="20" rx="5" transform="rotate(-27.7316 31.3555 145.448)" fill="#F97171"/>
<rect x="118" y="41.5557" width="13.973" height="20" rx="5" transform="rotate(-75.9623 118 41.5557)" fill="#F97171"/>
<rect x="48.4365" y="63.2065" width="13.973" height="20" rx="5" transform="rotate(-44.9211 48.4365 63.2065)" fill="#F97171"/>
<path d="M138.038 147.668C136.693 146.202 137.517 143.828 139.481 143.51L152.221 141.447C154.089 141.145 155.603 142.947 154.983 144.735L150.966 156.309C150.346 158.097 148.041 158.574 146.762 157.179L138.038 147.668Z" fill="#FBBF24"/>
<path d="M214.499 121.506C216.488 121.559 217.621 123.801 216.484 125.434L209.109 136.025C208.028 137.578 205.68 137.413 204.826 135.725L199.299 124.791C198.446 123.102 199.705 121.114 201.597 121.164L214.499 121.506Z" fill="#FBBF24"/>
<path d="M174.499 51.5059C176.488 51.5586 177.621 53.8007 176.484 55.4336L169.109 66.0252C168.028 67.5782 165.68 67.4134 164.826 65.7245L159.299 54.7908C158.446 53.102 159.705 51.1137 161.597 51.1639L174.499 51.5059Z" fill="#FBBF24"/>
<path d="M101.94 57.4377C103.316 56.0009 105.738 56.6696 106.182 58.6091L109.063 71.1897C109.485 73.0343 107.785 74.6613 105.961 74.1576L94.1513 70.8967C92.3272 70.3931 91.7024 68.1239 93.0115 66.7575L101.94 57.4377Z" fill="#FBBF24"/>
<path d="M68.651 115.983C69.5812 117.742 68.184 119.83 66.2033 119.641L53.3555 118.414C51.4718 118.234 50.4631 116.107 51.5156 114.534L58.3294 104.353C59.3819 102.78 61.7323 102.902 62.617 104.575L68.651 115.983Z" fill="#FBBF24"/>
<path d="M78.4986 168.506C80.4875 168.559 81.6209 170.801 80.484 172.434L73.1091 183.025C72.0278 184.578 69.68 184.413 68.8263 182.725L63.2994 171.791C62.4457 170.102 63.7051 168.114 65.5968 168.164L78.4986 168.506Z" fill="#FBBF24"/>
<path d="M187.693 174.687C189.112 176.082 188.411 178.494 186.466 178.913L173.848 181.627C171.998 182.025 170.394 180.303 170.922 178.486L174.339 166.721C174.866 164.903 177.144 164.309 178.493 165.636L187.693 174.687Z" fill="#FBBF24"/>
</svg>
