<svg width="250" height="250" viewBox="0 0 250 250" fill="none" xmlns="http://www.w3.org/2000/svg">
<circle cx="125" cy="125" r="125" fill="#FDBA74"/>
<circle cx="124.5" cy="125.5" r="114.5" fill="#DC2626"/>
<circle cx="124.5" cy="125.5" r="109.5" fill="#FEE68B"/>
<circle cx="37.6692" cy="97.451" r="12.5" transform="rotate(-48.3342 37.6692 97.451)" fill="#66A307"/>
<circle cx="95.1358" cy="99.0613" r="12.5" transform="rotate(-48.3342 95.1358 99.0613)" fill="#66A307"/>
<circle cx="174.137" cy="202.83" r="12.5" transform="rotate(-48.3342 174.137 202.83)" fill="#66A307"/>
<circle cx="125.648" cy="181.648" r="12.5" transform="rotate(-48.3342 125.648 181.648)" fill="#66A307"/>
<path d="M76.8971 124.269C76.2301 120.933 74.2693 118.368 71.5114 117.742C67.2706 116.78 62.751 120.769 61.4164 126.652C60.0819 132.535 62.4378 138.084 66.6786 139.046C69.2626 139.632 71.9502 138.38 73.9576 135.981L79.7624 137.298C81.2769 137.642 82.7894 136.665 83.1406 135.117L84.5396 128.95C84.8908 127.402 83.9477 125.868 82.4332 125.525L76.8971 124.269Z" fill="#D99A59"/>
<path d="M169.585 82.5979C166.844 80.5828 163.667 80.0087 161.207 81.405C157.426 83.5521 156.775 89.5452 159.753 94.7909C162.732 100.037 168.212 102.549 171.993 100.402C174.298 99.0932 175.439 96.357 175.306 93.232L180.482 90.2931C181.833 89.5263 182.292 87.7855 181.508 86.4051L178.386 80.9061C177.602 79.5256 175.872 79.0282 174.522 79.795L169.585 82.5979Z" fill="#D99A59"/>
<path d="M204.55 146.539C206.225 149.5 208.888 151.326 211.703 151.06C216.033 150.651 219.082 145.451 218.515 139.445C217.948 133.44 213.978 128.903 209.649 129.312C207.011 129.561 204.848 131.589 203.689 134.494L197.763 135.054C196.217 135.2 195.085 136.599 195.234 138.18L195.829 144.475C195.978 146.056 197.353 147.219 198.899 147.073L204.55 146.539Z" fill="#D99A59"/>
<path d="M89.0163 64.0098C92.2419 65.0906 95.4429 64.666 97.3576 62.5848C100.302 59.3845 99.0896 53.4793 94.6502 49.3951C90.2108 45.3109 84.2252 44.5943 81.281 47.7945C79.4871 49.7445 79.2363 52.6988 80.3184 55.6335L76.2885 60.014C75.237 61.1569 75.3316 62.9547 76.4999 64.0295L81.1536 68.3109C82.3219 69.3857 84.1214 69.3304 85.1729 68.1875L89.0163 64.0098Z" fill="#D99A59"/>
<path d="M129.702 79.1425C131.769 78.1231 133.106 76.3915 133.033 74.4771C132.922 71.5335 129.521 69.2725 125.438 69.427C121.354 69.5815 118.134 72.093 118.246 75.0366C118.314 76.8303 119.603 78.3705 121.523 79.2652L121.676 83.2944C121.716 84.3457 122.619 85.165 123.694 85.1244L127.974 84.9624C129.049 84.9217 129.888 84.0365 129.848 82.9852L129.702 79.1425Z" fill="#66A307"/>
<path d="M45.0521 133.824C43.9942 131.777 42.2378 130.473 40.3252 130.582C37.3841 130.748 35.1872 134.19 35.4182 138.27C35.6493 142.35 38.2207 145.522 41.1617 145.356C42.9538 145.254 44.4696 143.937 45.3281 142L49.3538 141.772C50.4042 141.712 51.2064 140.794 51.1456 139.72L50.9034 135.443C50.8426 134.37 49.9418 133.547 48.8915 133.607L45.0521 133.824Z" fill="#66A307"/>
<path d="M97.9807 150.221C95.7573 150.827 94.1147 152.271 93.8201 154.164C93.3672 157.075 96.2733 159.944 100.311 160.572C104.349 161.2 107.989 159.35 108.442 156.439C108.718 154.666 107.747 152.908 106.033 151.663L106.653 147.679C106.814 146.639 106.084 145.662 105.021 145.497L100.789 144.838C99.7262 144.673 98.7337 145.382 98.5719 146.421L97.9807 150.221Z" fill="#66A307"/>
<path d="M128.981 208.221C126.757 208.827 125.115 210.271 124.82 212.164C124.367 215.075 127.273 217.944 131.311 218.572C135.349 219.2 138.989 217.35 139.442 214.439C139.718 212.666 138.747 210.908 137.033 209.663L137.653 205.679C137.814 204.639 137.084 203.662 136.021 203.497L131.789 202.838C130.726 202.673 129.734 203.382 129.572 204.421L128.981 208.221Z" fill="#66A307"/>
<path d="M191.394 171.612C193.215 173.024 195.357 173.468 197.046 172.565C199.644 171.177 200.19 167.13 198.264 163.526C196.338 159.922 192.671 158.125 190.073 159.514C188.49 160.359 187.669 162.192 187.705 164.311L184.148 166.211C183.22 166.707 182.879 167.878 183.386 168.826L185.404 172.604C185.911 173.553 187.074 173.92 188.002 173.424L191.394 171.612Z" fill="#66A307"/>
<path d="M160.182 148.481C157.271 150.242 155.525 152.958 155.874 155.764C156.41 160.08 161.698 162.975 167.684 162.23C173.671 161.486 178.088 157.384 177.552 153.069C177.225 150.439 175.134 148.337 172.196 147.265L171.461 141.358C171.27 139.817 169.837 138.726 168.262 138.922L161.987 139.702C160.411 139.898 159.29 141.306 159.481 142.848L160.182 148.481Z" fill="#D99A59"/>
<path d="M80.1817 195.481C77.2712 197.242 75.5247 199.958 75.8737 202.764C76.4102 207.08 81.698 209.975 87.6843 209.23C93.6705 208.486 98.0883 204.384 97.5518 200.069C97.2248 197.439 95.1338 195.337 92.1957 194.265L91.4612 188.358C91.2696 186.817 89.8372 185.726 88.2619 185.922L81.9866 186.702C80.4113 186.898 79.2896 188.306 79.4812 189.848L80.1817 195.481Z" fill="#D99A59"/>
<circle cx="204.422" cy="102.611" r="12.5" transform="rotate(-48.3342 204.422 102.611)" fill="#66A307"/>
<circle cx="179.948" cy="59.4133" r="12.5" transform="rotate(-48.3342 179.948 59.4133)" fill="#66A307"/>
<circle cx="132.648" cy="127.648" r="12.5" transform="rotate(-48.3342 132.648 127.648)" fill="#66A307"/>
<circle cx="132.648" cy="42.6478" r="12.5" transform="rotate(-48.3342 132.648 42.6478)" fill="#66A307"/>
<circle cx="58.6414" cy="165.643" r="12.5" transform="rotate(-48.3342 58.6414 165.643)" fill="#66A307"/>
</svg>
