<svg width="250" height="250" viewBox="0 0 250 250" fill="none" xmlns="http://www.w3.org/2000/svg">
<circle cx="125" cy="125" r="125" fill="#FDBA74"/>
<circle cx="124.5" cy="125.5" r="114.5" fill="#DC2626"/>
<circle cx="124.5" cy="125.5" r="109.5" fill="#FEE68B"/>
<circle cx="184.356" cy="115.88" r="27" transform="rotate(114.54 184.356 115.88)" stroke="#9E174D" stroke-width="3"/>
<circle cx="94.2985" cy="74.7625" r="27" transform="rotate(114.54 94.2985 74.7625)" stroke="#9E174D" stroke-width="3"/>
<circle cx="77.7624" cy="163.951" r="27" transform="rotate(114.54 77.7624 163.951)" stroke="#9E174D" stroke-width="3"/>
<circle cx="45.5" cy="113.5" r="14.5" fill="#FBBF24"/>
<circle cx="161.5" cy="46.5" r="14.5" fill="#FBBF24"/>
<circle cx="161.5" cy="203.5" r="14.5" fill="#FBBF24"/>
<rect x="116" y="34.1941" width="26" height="7" rx="2.5" transform="rotate(-20.7088 116 34.1941)" fill="#66A307"/>
<rect x="34.1348" y="73" width="26" height="7" rx="2.5" transform="rotate(26.6025 34.1348 73)" fill="#66A307"/>
<rect x="196.548" y="153.121" width="26" height="7" rx="2.5" transform="rotate(107.636 196.548 153.121)" fill="#66A307"/>
<rect x="108.876" y="211.773" width="26" height="7" rx="2.5" transform="rotate(-20.7088 108.876 211.773)" fill="#66A307"/>
<rect x="68.998" y="135" width="26" height="7" rx="2.5" transform="rotate(88.6189 68.998 135)" fill="#66A307"/>
<rect x="184" y="74.1941" width="26" height="7" rx="2.5" transform="rotate(-20.7088 184 74.1941)" fill="#66A307"/>
<rect x="118" y="112.95" width="26" height="7" rx="2.5" transform="rotate(-61.9702 118 112.95)" fill="#66A307"/>
<circle cx="97.5" cy="187.5" r="14.5" fill="#FBBF24"/>
<circle cx="132.5" cy="138.5" r="14.5" fill="#FBBF24"/>
</svg>
