<svg width="258" height="196" viewBox="0 0 258 196" fill="none" xmlns="http://www.w3.org/2000/svg">
<path d="M7.57695 133.323V139.771H8.93909C10.0884 139.771 10.9965 139.452 11.6634 138.814C12.3303 138.175 12.6637 137.296 12.6637 136.175C12.6637 134.274 11.6137 133.323 9.51375 133.323H7.57695ZM9.7053 127.216C13.21 127.216 15.8562 127.982 17.6441 129.514C19.4319 131.046 20.3258 133.316 20.3258 136.324C20.3258 139.317 19.4035 141.673 17.5589 143.389C15.7002 145.092 13.0823 145.943 9.7053 145.943H7.57695V155.221H0V127.216H9.7053Z" fill="#DC2626"/>
<path d="M32.3889 155.221H24.7906V127.216H32.3889V155.221Z" fill="#DC2626"/>
<path d="M58.4039 149.114V155.221H36.5882V150.54L48.7198 133.323H36.8649V127.216H58.1059V131.876L45.9743 149.114H58.4039Z" fill="#DC2626"/>
<path d="M82.3723 149.114V155.221H60.5566V150.54L72.6882 133.323H60.8333V127.216H82.0743V131.876L69.9427 149.114H82.3723Z" fill="#DC2626"/>
<path d="M111.832 155.221H103.553L102.19 149.965H93.081L91.6763 155.221H83.3544L92.4851 127.109H102.595L111.832 155.221ZM94.656 143.772H100.615C98.8559 137.133 97.8485 133.118 97.5931 131.727C97.3093 133.486 96.3303 137.501 94.656 143.772Z" fill="#DC2626"/>
<path d="M124.875 147.092C126.379 147.872 127.897 148.461 129.43 148.858C130.962 149.256 132.317 149.454 133.495 149.454C134.687 149.454 135.552 149.27 136.091 148.901C136.645 148.518 136.921 148.007 136.921 147.369C136.921 146.986 136.815 146.652 136.602 146.369C136.375 146.085 136.049 145.808 135.623 145.539C135.212 145.255 134.013 144.659 132.026 143.751C130.04 142.843 128.614 142.02 127.748 141.282C125.96 139.75 125.067 137.679 125.067 135.068C125.067 132.458 126.003 130.429 127.876 128.982C129.763 127.535 132.345 126.811 135.623 126.811C138.504 126.811 141.462 127.485 144.498 128.833L142.178 134.664C139.568 133.472 137.305 132.876 135.389 132.876C134.453 132.876 133.75 133.039 133.282 133.366C132.814 133.692 132.58 134.132 132.58 134.685C132.58 135.224 132.863 135.714 133.431 136.154C134.013 136.593 135.531 137.374 137.986 138.495C140.44 139.601 142.136 140.779 143.072 142.027C144.023 143.247 144.498 144.808 144.498 146.709C144.527 149.348 143.526 151.497 141.497 153.157C139.483 154.817 136.822 155.633 133.516 155.605C131.629 155.605 130.04 155.47 128.749 155.2C127.472 154.916 126.18 154.462 124.875 153.838V147.092Z" fill="#DC2626"/>
<path d="M172.834 127.216V155.221H165.236V143.815H156.424V155.221H148.826V127.216H156.424V137.601H165.236V127.216H172.834Z" fill="#DC2626"/>
<path d="M204.334 155.221H196.055L194.693 149.965H185.583L184.179 155.221H175.857L184.987 127.109H195.097L204.334 155.221ZM187.158 143.772H193.118C191.358 137.133 190.351 133.118 190.096 131.727C189.812 133.486 188.833 137.501 187.158 143.772Z" fill="#DC2626"/>
<path d="M214.947 145.028V155.221H207.37V127.216H216.543C224.163 127.216 227.972 129.975 227.972 135.494C227.972 138.743 226.383 141.254 223.205 143.027L231.378 155.221H222.8L216.862 145.028H214.947ZM214.947 132.94V139.346H216.351C219.005 139.346 220.332 138.175 220.332 135.834C220.332 133.905 219.033 132.94 216.437 132.94H214.947Z" fill="#DC2626"/>
<path d="M241.527 155.221H233.928V127.216H241.527V139.388C241.952 138.551 242.726 137.352 243.846 135.792L249.742 127.216H258L249.189 139.771L257.851 155.221H249.316L243.783 144.517L241.527 145.858V155.221Z" fill="#DC2626"/>
<path d="M75.1171 114.531C75.0632 115.957 75.0361 117.389 75.0361 118.828L0.0474557 118.828V112.251L68.6858 112.251C72.7917 60.3482 108.207 17.2557 156.049 1.85383C158.133 1.18281 160.241 0.564342 162.371 0L188.493 112.251L257.903 112.251V118.828H183.294L182.588 115.793H182.563L157.545 8.28314C111.913 23.2045 78.3284 64.7391 75.1171 114.531Z" fill="#DC2626"/>
<path d="M28.7554 161.536C25.7977 166.424 20.4303 169.691 14.2997 169.691C8.30715 169.691 3.04381 166.57 0.0474557 161.864V189.423C0.0474557 193.055 2.9925 196 6.6254 196H251.325C254.958 196 257.903 193.055 257.903 189.423V161.36H257.773C254.838 166.346 249.416 169.691 243.212 169.691C237.082 169.691 231.714 166.424 228.757 161.536C225.837 166.424 220.54 169.691 214.489 169.691C208.574 169.691 203.379 166.57 200.421 161.864C197.386 166.57 192.054 169.691 185.984 169.691C179.914 169.691 174.582 166.57 171.547 161.864C168.589 166.57 163.394 169.691 157.48 169.691C151.429 169.691 146.131 166.424 143.212 161.536C140.254 166.424 134.887 169.691 128.756 169.691C122.625 169.691 117.258 166.424 114.3 161.536C111.381 166.424 106.083 169.691 100.032 169.691C94.1176 169.691 88.9226 166.57 85.9651 161.864C82.9299 166.57 77.5982 169.691 71.5278 169.691C65.4575 169.691 60.1258 166.57 57.0905 161.864C54.1331 166.57 48.9381 169.691 43.0234 169.691C36.9724 169.691 31.6747 166.424 28.7554 161.536Z" fill="#DC2626"/>
<path d="M27.4483 104.897V106.112H20.9479V94.4427H27.4483V95.6487H22.3047V99.4083H27.1379V100.605H22.3047V104.897H27.4483Z" fill="#DC2626"/>
<path d="M36.6241 103.008C36.6241 104.037 36.2517 104.838 35.5068 105.411C34.7677 105.985 33.7302 106.271 32.394 106.271C31.0638 106.271 30.0262 106.094 29.2813 105.739V104.427C30.3337 104.865 31.4156 105.083 32.5271 105.083C33.4198 105.083 34.0967 104.915 34.5579 104.578C35.0249 104.241 35.2584 103.759 35.2584 103.133C35.2584 102.731 35.1757 102.402 35.0101 102.148C34.8505 101.894 34.5786 101.655 34.1943 101.43C33.81 101.205 33.2336 100.957 32.465 100.685C31.3831 100.301 30.6056 99.8428 30.1327 99.3108C29.6656 98.7788 29.4321 98.0723 29.4321 97.1915C29.4321 96.3107 29.7691 95.6043 30.443 95.0723C31.1288 94.5403 32.0364 94.2743 33.1656 94.2743C34.3007 94.2743 35.356 94.4871 36.3315 94.9127L35.9058 96.1009C34.9421 95.693 34.008 95.4891 33.1035 95.4891C32.3822 95.4891 31.8176 95.6457 31.4097 95.959C31.0076 96.2664 30.8066 96.692 30.8066 97.2359C30.8066 97.6497 30.8776 97.9807 31.0195 98.229C31.1673 98.4773 31.4215 98.7167 31.7821 98.9472C32.1546 99.1719 32.6985 99.4083 33.4139 99.6566C34.6436 100.094 35.4831 100.564 35.9324 101.066C36.3936 101.563 36.6241 102.21 36.6241 103.008Z" fill="#DC2626"/>
<path d="M42.6117 95.6487V106.112H41.2549V95.6487H37.5569V94.4427H46.3097V95.6487H42.6117Z" fill="#DC2626"/>
<path d="M48.3565 106.059C48.1792 106.248 47.9427 106.342 47.6471 106.342C47.3574 106.342 47.1268 106.254 46.9554 106.076C46.7839 105.899 46.6982 105.633 46.6982 105.278C46.6982 104.918 46.778 104.646 46.9376 104.463C47.1032 104.273 47.3397 104.179 47.6471 104.179C47.9545 104.179 48.194 104.273 48.3654 104.463C48.5369 104.646 48.6226 104.912 48.6226 105.261C48.6226 105.603 48.5339 105.869 48.3565 106.059Z" fill="#DC2626"/>
<path d="M211.859 94.4427V106.112H210.573V97.7945C210.573 97.0615 210.594 96.4083 210.635 95.8349C210.523 95.9472 210.393 96.0684 210.245 96.1984C210.097 96.3226 209.467 96.8369 208.356 97.7413L207.655 96.828L210.741 94.4427H211.859Z" fill="#DC2626"/>
<path d="M218.285 96.1452C217.871 96.63 217.664 97.2861 217.664 98.1137C217.664 98.9413 217.86 99.5709 218.25 100.002C218.64 100.434 219.219 100.65 219.988 100.65C220.697 100.673 221.318 100.461 221.85 100.011C222.388 99.562 222.651 99.0536 222.64 98.4861C222.651 97.6349 222.409 96.9048 221.912 96.296C221.416 95.6871 220.795 95.3915 220.05 95.4092C219.293 95.4092 218.705 95.6546 218.285 96.1452ZM218.675 106.271C218.067 106.271 217.579 106.218 217.212 106.112V104.968C217.638 105.11 218.12 105.181 218.658 105.181C219.935 105.181 220.898 104.785 221.549 103.993C222.205 103.2 222.563 101.989 222.622 100.357H222.524C222.24 100.795 221.856 101.131 221.371 101.368C220.887 101.598 220.337 101.714 219.722 101.714C218.699 101.714 217.88 101.406 217.265 100.792C216.656 100.177 216.352 99.2871 216.352 98.1226C216.352 96.958 216.692 96.027 217.372 95.3294C218.058 94.626 218.95 94.2743 220.05 94.2743C221.244 94.2565 222.199 94.7147 222.914 95.6487C223.636 96.5827 223.99 97.8418 223.979 99.4261C223.979 103.99 222.211 106.271 218.675 106.271Z" fill="#DC2626"/>
<path d="M227.009 95.028C227.635 94.5255 228.478 94.2743 229.536 94.2743C230.594 94.2743 231.434 94.5225 232.055 95.0191C232.675 95.5157 232.986 96.1984 232.986 97.0674C232.986 98.2438 232.238 99.1985 230.742 99.9315C231.676 100.375 232.344 100.851 232.746 101.359C233.154 101.862 233.358 102.438 233.358 103.088C233.358 104.064 233.021 104.838 232.347 105.411C231.679 105.985 230.736 106.271 229.518 106.271C228.306 106.271 227.366 106 226.698 105.456C226.03 104.912 225.696 104.137 225.696 103.133C225.696 101.797 226.509 100.756 228.135 100.011C227.42 99.6093 226.896 99.1689 226.565 98.6901C226.24 98.2053 226.077 97.6615 226.077 97.0585C226.077 96.2132 226.388 95.5363 227.009 95.028ZM231.194 98.4063C231.52 98.0398 231.682 97.5994 231.682 97.0851C231.682 96.5649 231.487 96.1482 231.097 95.8349C230.713 95.5157 230.186 95.356 229.518 95.356C228.85 95.356 228.324 95.5157 227.94 95.8349C227.561 96.1482 227.372 96.562 227.372 97.0763C227.372 97.5906 227.529 98.0221 227.842 98.3709C228.161 98.7196 228.744 99.0714 229.589 99.4261C230.34 99.1127 230.875 98.7728 231.194 98.4063ZM227.532 101.687C227.177 102.101 227 102.612 227 103.221C227 103.824 227.221 104.306 227.665 104.667C228.108 105.021 228.729 105.199 229.527 105.199C230.325 105.199 230.946 105.015 231.389 104.649C231.833 104.276 232.055 103.762 232.055 103.106C232.055 102.592 231.845 102.133 231.425 101.732C231.005 101.33 230.284 100.939 229.261 100.561C228.469 100.898 227.892 101.273 227.532 101.687Z" fill="#DC2626"/>
<path d="M242.685 104.879V106.112H235.014V104.968L238.082 101.882C239.034 100.925 239.652 100.251 239.936 99.8605C240.533 99.0507 240.831 98.2438 240.831 97.4398C240.831 96.8132 240.642 96.3196 240.264 95.959C239.885 95.5925 239.362 95.4092 238.694 95.4092C238.203 95.4092 237.745 95.4891 237.319 95.6487C236.894 95.8024 236.409 96.092 235.865 96.5176L235.164 95.6221C236.24 94.7235 237.411 94.2743 238.676 94.2743C239.764 94.2743 240.621 94.555 241.248 95.1166C241.875 95.6723 242.188 96.426 242.188 97.3777C242.188 98.1285 241.975 98.8704 241.55 99.6034C241.13 100.33 240.358 101.238 239.235 102.326L236.681 104.817V104.879H242.685Z" fill="#DC2626"/>
</svg>
