<svg width="258" height="196" viewBox="0 0 258 196" fill="none" xmlns="http://www.w3.org/2000/svg">
<path d="M7.57695 133.323V139.771H8.93909C10.0884 139.771 10.9965 139.452 11.6634 138.814C12.3303 138.175 12.6637 137.296 12.6637 136.175C12.6637 134.274 11.6137 133.323 9.51375 133.323H7.57695ZM9.7053 127.216C13.21 127.216 15.8562 127.982 17.6441 129.514C19.4319 131.046 20.3258 133.316 20.3258 136.324C20.3258 139.317 19.4035 141.673 17.5589 143.389C15.7002 145.092 13.0823 145.943 9.7053 145.943H7.57695V155.221H0V127.216H9.7053Z" fill="#DC2626"/>
<path d="M32.3889 155.221H24.7906V127.216H32.3889V155.221Z" fill="#DC2626"/>
<path d="M58.4039 149.114V155.221H36.5882V150.54L48.7198 133.323H36.8649V127.216H58.1059V131.876L45.9743 149.114H58.4039Z" fill="#DC2626"/>
<path d="M82.3723 149.114V155.221H60.5566V150.54L72.6882 133.323H60.8333V127.216H82.0743V131.876L69.9427 149.114H82.3723Z" fill="#DC2626"/>
<path d="M111.832 155.221H103.553L102.19 149.965H93.081L91.6763 155.221H83.3544L92.4851 127.109H102.595L111.832 155.221ZM94.656 143.772H100.615C98.8559 137.133 97.8485 133.118 97.5931 131.727C97.3093 133.486 96.3303 137.501 94.656 143.772Z" fill="#DC2626"/>
<path d="M124.875 147.092C126.379 147.872 127.897 148.461 129.43 148.858C130.962 149.256 132.317 149.454 133.495 149.454C134.687 149.454 135.552 149.27 136.091 148.901C136.645 148.518 136.921 148.007 136.921 147.369C136.921 146.986 136.815 146.652 136.602 146.369C136.375 146.085 136.049 145.808 135.623 145.539C135.212 145.255 134.013 144.659 132.026 143.751C130.04 142.843 128.614 142.02 127.748 141.282C125.96 139.75 125.067 137.679 125.067 135.068C125.067 132.458 126.003 130.429 127.876 128.982C129.763 127.535 132.346 126.811 135.623 126.811C138.504 126.811 141.462 127.485 144.498 128.833L142.178 134.664C139.568 133.472 137.305 132.876 135.389 132.876C134.453 132.876 133.75 133.04 133.282 133.366C132.814 133.692 132.58 134.132 132.58 134.685C132.58 135.224 132.863 135.714 133.431 136.154C134.013 136.593 135.531 137.374 137.986 138.495C140.44 139.601 142.136 140.779 143.072 142.027C144.023 143.247 144.498 144.808 144.498 146.709C144.527 149.348 143.526 151.497 141.497 153.157C139.483 154.817 136.822 155.633 133.516 155.605C131.629 155.605 130.04 155.47 128.749 155.2C127.472 154.916 126.18 154.462 124.875 153.838V147.092Z" fill="#DC2626"/>
<path d="M172.834 127.216V155.221H165.236V143.815H156.424V155.221H148.826V127.216H156.424V137.601H165.236V127.216H172.834Z" fill="#DC2626"/>
<path d="M204.334 155.221H196.055L194.693 149.965H185.583L184.179 155.221H175.857L184.987 127.109H195.097L204.334 155.221ZM187.158 143.772H193.118C191.358 137.133 190.351 133.118 190.096 131.727C189.812 133.486 188.833 137.501 187.158 143.772Z" fill="#DC2626"/>
<path d="M214.947 145.028V155.221H207.37V127.216H216.543C224.163 127.216 227.972 129.975 227.972 135.494C227.972 138.743 226.383 141.254 223.205 143.027L231.378 155.221H222.8L216.862 145.028H214.947ZM214.947 132.94V139.346H216.351C219.005 139.346 220.331 138.175 220.331 135.834C220.331 133.905 219.033 132.94 216.437 132.94H214.947Z" fill="#DC2626"/>
<path d="M241.527 155.221H233.928V127.216H241.527V139.388C241.952 138.551 242.726 137.352 243.846 135.792L249.742 127.216H258L249.189 139.771L257.851 155.221H249.316L243.783 144.517L241.527 145.858V155.221Z" fill="#DC2626"/>
<path d="M75.1171 114.531C75.0632 115.957 75.0361 117.389 75.0361 118.828L0.0474557 118.828V112.251L68.6858 112.251C72.7917 60.3482 108.207 17.2557 156.049 1.85383C158.133 1.18281 160.241 0.564342 162.371 0L188.493 112.251L257.903 112.251V118.828H183.294L182.588 115.793H182.563L157.545 8.28314C111.913 23.2045 78.3284 64.7391 75.1171 114.531Z" fill="#DC2626"/>
<path d="M28.7554 161.536C25.7977 166.424 20.4303 169.691 14.2997 169.691C8.30715 169.691 3.04381 166.57 0.0474557 161.864V189.423C0.0474557 193.055 2.9925 196 6.6254 196H251.325C254.958 196 257.903 193.055 257.903 189.423V161.36H257.773C254.838 166.346 249.416 169.691 243.212 169.691C237.082 169.691 231.714 166.424 228.757 161.536C225.837 166.424 220.54 169.691 214.489 169.691C208.574 169.691 203.379 166.57 200.421 161.864C197.386 166.57 192.054 169.691 185.984 169.691C179.914 169.691 174.582 166.57 171.547 161.864C168.589 166.57 163.394 169.691 157.48 169.691C151.429 169.691 146.131 166.424 143.212 161.536C140.254 166.424 134.887 169.691 128.756 169.691C122.625 169.691 117.258 166.424 114.3 161.536C111.381 166.424 106.083 169.691 100.032 169.691C94.1176 169.691 88.9226 166.57 85.9651 161.864C82.9299 166.57 77.5982 169.691 71.5278 169.691C65.4575 169.691 60.1258 166.57 57.0905 161.864C54.1331 166.57 48.9381 169.691 43.0234 169.691C36.9724 169.691 31.6747 166.424 28.7554 161.536Z" fill="#DC2626"/>
</svg>
