<svg width="308" height="308" viewBox="0 0 308 308" fill="none" xmlns="http://www.w3.org/2000/svg">
<path d="M308 154C308 239.052 239.052 308 154 308C68.9482 308 0 239.052 0 154C0 68.9482 68.9482 0 154 0C239.052 0 308 68.9482 308 154Z" fill="#15803D"/>
<path d="M226 214C226 247.137 212.345 274 195.5 274C178.655 274 165 247.137 165 214C165 180.863 178.655 154 195.5 154C212.345 154 226 180.863 226 214Z" fill="#D9D9D9"/>
<path d="M136 154C136 187.137 122.345 214 105.5 214C88.6553 214 75 187.137 75 154C75 120.863 88.6553 94 105.5 94C122.345 94 136 120.863 136 154Z" fill="#D9D9D9"/>
</svg>
