<svg width="463" height="463" viewBox="0 0 463 463" fill="none" xmlns="http://www.w3.org/2000/svg">
<path d="M231.5 0L260.472 48.5801L303.037 11.3304L315.579 66.4856L367.572 44.2126L362.456 100.544L418.787 95.4277L396.514 147.421L451.67 159.963L414.42 202.528L463 231.5L414.42 260.472L451.67 303.037L396.514 315.579L418.787 367.572L362.456 362.456L367.572 418.787L315.579 396.514L303.037 451.67L260.472 414.42L231.5 463L202.528 414.42L159.963 451.67L147.421 396.514L95.4277 418.787L100.544 362.456L44.2126 367.572L66.4856 315.579L11.3304 303.037L48.5801 260.472L0 231.5L48.5801 202.528L11.3304 159.963L66.4856 147.421L44.2126 95.4277L100.544 100.544L95.4277 44.2126L147.421 66.4856L159.963 11.3304L202.528 48.5801L231.5 0Z" fill="#FACC15"/>
</svg>
